<svg xmlns="http://www.w3.org/2000/svg" xmlns:xlink="http://www.w3.org/1999/xlink" version="1.1" width="46" height="42" style="" xml:space="preserve"><rect id="backgroundrect" width="100%" height="100%" x="0" y="0" fill="none" stroke="none"/>
















<g class="currentLayer" style=""><title>Layer 1</title><g id="svg_1" class="selected" opacity="1" stroke="#06a000" stroke-opacity="1" fill-opacity="1" fill="#37393b">
	<g id="svg_2" opacity="1" stroke="#06a000" stroke-opacity="1" fill="#37393b" fill-opacity="1">
		<path d="M43.014078678131106,8.975999999999999 c-2.628,-1.251 -5.771,-0.136 -7.021,2.493 c-0.8600000000000002,1.807 -0.5810000000000002,3.8440000000000003 0.519,5.355 l-3.7670000000000003,7.913 c-2.8850000000000002,-1.602 -6.198,-2.526 -9.733,-2.526 c-3.525,0 -6.829,0.92 -9.708,2.513 L9.510078678131103,16.754 c1.099,-1.512 1.3780000000000001,-3.549 0.518,-5.355 c-1.25,-2.628 -4.3950000000000005,-3.744 -7.022,-2.492 c-2.629,1.251 -3.744,4.396 -2.493,7.023 c0.8590000000000002,1.806 2.617,2.874 4.484,2.974 l4.201,8.826 c-3.024,2.8680000000000003 -5.171,6.655 -5.96,10.926 c-0.15100000000000005,0.8210000000000002 0.07,1.807 0.6040000000000002,2.448 c0.534,0.6410000000000002 1.327,1.149 2.162,1.149 h34.011 c0.8340000000000002,0 1.625,-0.51 2.159,-1.15 c0.534,-0.6420000000000002 0.7590000000000002,-1.558 0.6060000000000002,-2.3770000000000002 c-0.786,-4.2620000000000005 -2.923,-8.075 -5.937,-10.94 l4.18,-8.795 c1.8650000000000002,-0.1 3.624,-1.176 4.482,-2.982 C46.758078678131106,13.379 45.64207867813111,10.228 43.014078678131106,8.975999999999999 z" id="svg_3" opacity="1" stroke="#06a000" stroke-opacity="1" fill="#37393b" fill-opacity="1"/>
		<path d="M31.965078678131103,12.254 h-2.781 L26.000078678131104,6.5120000000000005 c-0.265,-0.4770000000000001 -0.7680000000000002,-0.773 -1.312,-0.773 c-0.5770000000000002,0 -1.104,0.3310000000000001 -1.353,0.8510000000000002 l-3.113,6.486 c-0.03600000000000001,0.07500000000000002 -0.11400000000000003,0.12200000000000003 -0.19800000000000006,0.11800000000000004 c-0.08300000000000003,-0.004000000000000002 -0.15600000000000006,-0.05800000000000002 -0.18600000000000005,-0.136 l-3.081,-8.34 c-0.23700000000000004,-0.6040000000000002 -0.8350000000000002,-0.989 -1.482,-0.9490000000000002 c-0.6470000000000002,0.03600000000000001 -1.197,0.4850000000000001 -1.364,1.112 l-2.229,8.399000000000001 c-0.21200000000000005,0.801 0.265,1.622 1.065,1.835 c0.805,0.21300000000000005 1.622,-0.265 1.835,-1.064 l0.93,-3.505 c0.018000000000000006,-0.06500000000000003 0.07500000000000002,-0.11200000000000003 0.14300000000000004,-0.11600000000000003 c0.06700000000000003,-0.003000000000000002 0.13,0.03700000000000001 0.15400000000000005,0.1 l2.814,7.344 c0.232,0.6070000000000002 0.8140000000000002,1.007 1.465,1.007 c0.6350000000000002,0 1.209,-0.3770000000000001 1.461,-0.9600000000000002 l2.987,-6.923 c0.027000000000000014,-0.06400000000000003 0.08900000000000004,-0.10700000000000003 0.15900000000000006,-0.11200000000000003 c0.06900000000000003,-0.004000000000000002 0.136,0.031000000000000014 0.17200000000000001,0.09100000000000005 l2.117,3.5620000000000003 c0.265,0.4790000000000001 0.7680000000000002,0.7190000000000002 1.312,0.7190000000000002 h3.6670000000000007 c0.8280000000000002,0 1.5,-0.6720000000000004 1.5,-1.5 C33.463078678131104,12.929 32.7930786781311,12.254 31.965078678131103,12.254 z" id="svg_4" opacity="1" stroke="#06a000" stroke-opacity="1" fill="#37393b" fill-opacity="1"/>
	</g>
</g><g id="svg_5" class="">
</g><g id="svg_6" class="">
</g><g id="svg_7" class="">
</g><g id="svg_8" class="">
</g><g id="svg_9" class="">
</g><g id="svg_10" class="">
</g><g id="svg_11" class="">
</g><g id="svg_12" class="">
</g><g id="svg_13" class="">
</g><g id="svg_14" class="">
</g><g id="svg_15" class="">
</g><g id="svg_16" class="">
</g><g id="svg_17" class="">
</g><g id="svg_18" class="">
</g><g id="svg_19" class="">
</g></g></svg>