<svg xmlns="http://www.w3.org/2000/svg" xmlns:xlink="http://www.w3.org/1999/xlink" width="249" height="140" version="1.1" style="display: block;margin-left: auto;margin-right: auto;"><rect id="backgroundrect" width="100%" height="100%" x="0" y="0" fill="none" stroke="none" class="" style=""/>
<defs>

<style type="text/css"><![CDATA[

.g0_1{
fill: #231F20;
stroke: #FFFFFF;
stroke-width: 1.5277778;
stroke-linecap: butt;
stroke-linejoin: miter;
}
.g1_1{
fill: #FFFFFF;
}
.g2_1{
fill: #00A06A;
}
.g3_1{
fill: #808285;
}

]]></style>

</defs>
<g class="currentLayer" style=""><title>Layer 1</title><path d="M245.0080151847735,35.44826933683956 c0,0 -17.1,-20.7 -48.6,-15.8 c-13.2,2 -28.5,15.4 -44,30 c-12.6,11.8 -28.7,31.3 -44.8,44.4 c0,0 -40.4,31.5 -73.5,18.2 c-24.9,-10 -24,-28.5 -22.9,-37.5 c0.9,-7.4 3.3,-18.9 12.9,-32 c9.5,-13.1 19.4,-22.4 29.7,-28.2 c25.6,-14.3 47.8,3.5 50,5.8 c2.8,2.8 3.1,4.1 3.6,5.3 c2.2,5.1 8.2,8.5 12.5,6.8 c10.1,-4.2 2.3,-14.9 2.2,-15 c0,0 -2.3,-2.7 -3.3,-3.4 c-6.6,-5.8 -22,-16.6 -43.6,-13.5 c-24,3.5 -64,32 -73.8,76.4 c0,0 -2.2,13.9 -1.1,22.3 c1.4,10.3 5.1,16.8 11.8,25 c6.7,8.2 23.1,19.1 48.2,14.6 c25.1,-4.4 42.7,-22.2 50.6,-30.4 c8.2,-8.4 25.1,-27.5 37.3,-40.2 c12.2,-12.6 17.6,-20.8 29.7,-28.6 c22.4,-14.2 42.7,-5.4 49.4,0.4 c2.4,2.1 3.5,4.4 3.7,4.6 c0.1,0.3000000000000002 4.8,10.8 12.6,7.6 c11.3,-4.7 1.4,-16.8 1.4,-16.8 z" class="g1_1" id="svg_3"/><path d="M231.80801518477352,126.64826933683958 H212.60801518477354 V107.44826933683956 h19.2 v19.2 z" class="g2_1" id="svg_4"/><path d="M117.30801518477352,107.14826933683958 l-5.6,13 h10.9 zm7.8,19.1 l-2.3,-5.6 H111.50801518477351 l-2.4,5.6 H108.50801518477351 l8.4,-19.5 h0.8 l8.1,19.5 z" class="g1_1" id="svg_5"/><path d="M132.4080151847735,107.34826933683956 v18.9 h-0.6000000000000004 V107.34826933683956 h-6.6 v-0.6000000000000004 h13.8 v0.6000000000000004 z" class="g1_1" id="svg_6"/><path d="M147.2080151847735,107.34826933683956 v18.9 h-0.6000000000000004 V107.34826933683956 h-6.6 v-0.6000000000000004 h13.9 v0.6000000000000004 z" class="g1_1" id="svg_7"/><path d="M162.0080151847735,107.14826933683958 l-5.5,13 h10.9 zm7.9,19.1 l-2.3,-5.6 H156.30801518477352 l-2.4,5.6 h-0.7000000000000004 l8.4,-19.5 h0.8 l8.1,19.5 z" class="g1_1" id="svg_8"/><path d="M186.30801518477352,126.04826933683955 c-1.3,0.5 -2.5,0.8 -3.8,0.8 c-1.5,0 -2.8,-0.3000000000000002 -4.1,-0.8 c-1.2,-0.5 -2.2,-1.2 -3.1,-2.1 c-0.9,-1 -1.6,-2 -2,-3.3 c-0.5,-1.3 -0.8,-2.6 -0.8,-4.1 c0,-1.5 0.3000000000000002,-2.9 0.8,-4.2 c0.4,-1.2 1.1,-2.3 2,-3.2 c0.9,-0.9 1.9,-1.6 3.2,-2.1 c1.2,-0.6000000000000004 2.5,-0.8 4,-0.8 c1.2,0 2.4,0.2 3.5,0.6000000000000004 c1.1,0.4 2.1,1 2.9,1.9 l-0.4,0.4 c-0.3000000000000002,-0.4 -0.8,-0.7000000000000004 -1.3,-1 c-0.5,-0.3000000000000002 -1,-0.6000000000000004 -1.5,-0.8 c-0.5,-0.2 -1.1,-0.3000000000000002 -1.6,-0.4 c-0.6000000000000004,-0.1 -1.1,-0.2 -1.6,-0.2 c-1.4,0 -2.7,0.3000000000000002 -3.8,0.8 c-1.2,0.5 -2.2,1.2 -3,2.1 c-0.8,0.8 -1.4,1.9 -1.9,3.1 c-0.4,1.1 -0.7000000000000004,2.4 -0.7000000000000004,3.8 c0,1.3 0.3000000000000002,2.6 0.7000000000000004,3.8 c0.4,1.2 1.1,2.2 1.9,3.1 c0.8,0.9 1.8,1.5 2.9,2.1 c1.2,0.5 2.5,0.7000000000000004 3.9,0.7000000000000004 c1.2,0 2.4,-0.2 3.6,-0.7000000000000004 c1.1,-0.5 2.1,-1.2 2.9,-2.1 l0.4,0.4 c-0.8,1 -1.8,1.7000000000000002 -3.1,2.2 z" class="g1_1" id="svg_9"/><path d="M207.10801518477354,126.24826933683957 v-9.8 H194.0080151847735 v9.8 h-0.6000000000000004 V106.74826933683957 h0.6000000000000004 v9.2 h13.1 v-9.2 h0.6000000000000004 v19.5 z" class="g1_1" id="svg_10"/><path d="M32.308015184773524,69.74826933683957 v2.7 h2 c0.5,0 0.9,-0.2 1.2,-0.4 c0.3000000000000002,-0.2 0.5,-0.5 0.5,-1 c0,-0.2 -0.1,-0.5 -0.2,-0.6000000000000004 c-0.1,-0.2 -0.3000000000000002,-0.3000000000000002 -0.5,-0.4 c-0.2,-0.1 -0.4,-0.2 -0.7000000000000004,-0.2 c-0.2,-0.1 -0.4,-0.1 -0.6000000000000004,-0.1 zm0,-6.6 v2.4 h1.8 c0.4,0 0.8,-0.1 1.1,-0.3000000000000002 c0.3000000000000002,-0.2 0.5,-0.5 0.5,-1 c0,-0.3000000000000002 -0.2,-0.6000000000000004 -0.5,-0.8 c-0.3000000000000002,-0.2 -0.7000000000000004,-0.3000000000000002 -1.3,-0.3000000000000002 zm6.7,4.3 c0.4,0.1 0.9,0.3000000000000002 1.3,0.5 c0.4,0.3000000000000002 0.8,0.6000000000000004 1.2,1 c0.3000000000000002,0.3000000000000002 0.6000000000000004,0.8 0.8,1.3 c0.2,0.5 0.3000000000000002,1 0.3000000000000002,1.6 c0,1.1 -0.2,2 -0.6000000000000004,2.7 c-0.5,0.7000000000000004 -1,1.3 -1.7000000000000002,1.8 c-0.7000000000000004,0.4 -1.6,0.7000000000000004 -2.5,0.9 c-0.9,0.2 -1.8,0.3000000000000002 -2.8,0.3000000000000002 h-8.8 V58.04826933683955 h8 c0.8,0 1.6,0.1 2.5,0.2 c0.9,0.1 1.7000000000000002,0.4 2.5,0.7000000000000004 c0.8,0.4 1.4,0.9 1.9,1.6 c0.5,0.7000000000000004 0.7000000000000004,1.6 0.7000000000000004,2.7 c0,1 -0.2,1.9 -0.8,2.6 c-0.5,0.7000000000000004 -1.2,1.2 -2,1.5 z" class="g3_1" id="svg_11"/><path d="M51.60801518477351,66.34826933683956 h1.3 c0.2,0 0.4,-0.1 0.7000000000000004,-0.1 c0.2,0 0.5,-0.1 0.7000000000000004,-0.2 c0.2,-0.2 0.4,-0.3000000000000002 0.6000000000000004,-0.5 c0.1,-0.2 0.2,-0.5 0.2,-0.9 c0,-0.3000000000000002 0,-0.6000000000000004 -0.2,-0.8 c-0.1,-0.2 -0.3000000000000002,-0.3000000000000002 -0.5,-0.4 c-0.2,-0.1 -0.4,-0.2 -0.6000000000000004,-0.2 c-0.3000000000000002,-0.1 -0.5,-0.1 -0.7000000000000004,-0.1 h-1.5 zm-6.3,-8.3 h8.4 c0.9,0 1.9,0.1 2.8,0.3000000000000002 c1,0.2 1.8,0.6000000000000004 2.5,1 c0.8,0.5 1.4,1.2 1.8,2 c0.5,0.8 0.7000000000000004,1.8 0.7000000000000004,3.1 c0,1.1 -0.3000000000000002,2.2 -0.8,3.1 c-0.6000000000000004,0.9 -1.5,1.6 -2.6,2.1 l5,7.9 h-7.5 l-3.8,-7 h-0.2 v7 h-6.3 z" class="g3_1" id="svg_12"/><path d="M73.7080151847735,64.84826933683956 l-1.6,4.8 h3.2 zm-3.4,-6.8 h7 l7.6,19.5 h-7.1 l-1.1,-2.9 H70.50801518477351 l-0.9,2.9 h-6.9 z" class="g3_1" id="svg_13"/><path d="M86.30801518477352,58.04826933683955 h6.6 v19.5 h-6.6 V58.04826933683955 z" class="g3_1" id="svg_14"/><path d="M96.50801518477351,58.04826933683955 h6.5 l5.6,9.9 h0.1 l-0.3000000000000002,-9.9 h6.2 v19.5 h-6.7 L102.50801518477351,68.24826933683957 h-0.1 l0.3000000000000002,9.3 H96.50801518477351 z" class="g3_1" id="svg_15"/></g></svg>
