<?xml version="1.0" encoding="UTF-8" standalone="no"?>
<!DOCTYPE svg PUBLIC "-//W3C//DTD SVG 1.1//EN"
"http://www.w3.org/Graphics/SVG/1.1/DTD/svg11.dtd">


<!-- Page 1 -->
<svg x="0" y="0" width="554" height="384" viewBox="0 0 554 384" version="1.1" xmlns="http://www.w3.org/2000/svg" xmlns:xlink="http://www.w3.org/1999/xlink"
style="display: block;margin-left: auto;margin-right: auto;">
<defs>

<style type="text/css"><![CDATA[

.g0_1{
fill: #231F20;
stroke: #FFFFFF;
stroke-width: 1.5277778;
stroke-linecap: butt;
stroke-linejoin: miter;
}
.g1_1{
fill: #FFFFFF;
}
.g2_1{
fill: #00A06A;
}
.g3_1{
fill: #808285;
}

]]></style>

</defs>
<path d="M0,0
L0,384
L554,384
L554,0 Z " 
fill="#FFFFFF" stroke="none" />
<path d="M507.6,329.9H60.4V67.1H507.6V329.9Z" class="g0_1" />
<path d="M409.5,152.6c0,0,-17.1,-20.7,-48.6,-15.8c-13.2,2,-28.5,15.4,-44,30c-12.6,11.8,-28.7,31.3,-44.8,44.4c0,0,-40.4,31.5,-73.5,18.2c-24.9,-10,-24,-28.5,-22.9,-37.5c.9,-7.4,3.3,-18.9,12.9,-32c9.5,-13.1,19.4,-22.4,29.7,-28.2c25.6,-14.3,47.8,3.5,50,5.8c2.8,2.8,3.1,4.1,3.6,5.3c2.2,5.1,8.2,8.5,12.5,6.8c10.1,-4.2,2.3,-14.9,2.2,-15c0,0,-2.3,-2.7,-3.3,-3.4c-6.6,-5.8,-22,-16.6,-43.6,-13.5c-24,3.5,-64,32,-73.8,76.4c0,0,-2.2,13.9,-1.1,22.3c1.4,10.3,5.1,16.8,11.8,25c6.7,8.2,23.1,19.1,48.2,14.6c25.1,-4.4,42.7,-22.2,50.6,-30.4c8.2,-8.4,25.1,-27.5,37.3,-40.2c12.2,-12.6,17.6,-20.8,29.7,-28.6c22.4,-14.2,42.7,-5.4,49.4,.4c2.4,2.1,3.5,4.4,3.7,4.6c.1,.3,4.8,10.8,12.6,7.6c11.3,-4.7,1.4,-16.8,1.4,-16.8Z" class="g1_1" />
<path d="M396.3,243.8H377.1V224.6h19.2v19.2Z" class="g2_1" />
<path d="M281.8,224.3l-5.6,13h10.9Zm7.8,19.1l-2.3,-5.6H276l-2.4,5.6H273l8.4,-19.5h.8l8.1,19.5Z" class="g1_1" />
<path d="M296.9,224.5v18.9h-.6V224.5h-6.6v-.6h13.8v.6Z" class="g1_1" />
<path d="M311.7,224.5v18.9h-.6V224.5h-6.6v-.6h13.9v.6Z" class="g1_1" />
<path d="M326.5,224.3l-5.5,13h10.9Zm7.9,19.1l-2.3,-5.6H320.8l-2.4,5.6h-.7l8.4,-19.5h.8l8.1,19.5Z" class="g1_1" />
<path d="M350.8,243.2c-1.3,.5,-2.5,.8,-3.8,.8c-1.5,0,-2.8,-.3,-4.1,-.8c-1.2,-.5,-2.2,-1.2,-3.1,-2.1c-.9,-1,-1.6,-2,-2,-3.3c-.5,-1.3,-.8,-2.6,-.8,-4.1c0,-1.5,.3,-2.9,.8,-4.2c.4,-1.2,1.1,-2.3,2,-3.2c.9,-.9,1.9,-1.6,3.2,-2.1c1.2,-.6,2.5,-.8,4,-.8c1.2,0,2.4,.2,3.5,.6c1.1,.4,2.1,1,2.9,1.9l-.4,.4c-.3,-.4,-.8,-.7,-1.3,-1c-.5,-.3,-1,-.6,-1.5,-.8c-.5,-.2,-1.1,-.3,-1.6,-.4c-.6,-.1,-1.1,-.2,-1.6,-.2c-1.4,0,-2.7,.3,-3.8,.8c-1.2,.5,-2.2,1.2,-3,2.1c-.8,.8,-1.4,1.9,-1.9,3.1c-.4,1.1,-.7,2.4,-.7,3.8c0,1.3,.3,2.6,.7,3.8c.4,1.2,1.1,2.2,1.9,3.1c.8,.9,1.8,1.5,2.9,2.1c1.2,.5,2.5,.7,3.9,.7c1.2,0,2.4,-.2,3.6,-.7c1.1,-.5,2.1,-1.2,2.9,-2.1l.4,.4c-.8,1,-1.8,1.7,-3.1,2.2Z" class="g1_1" />
<path d="M371.6,243.4v-9.8H358.5v9.8h-.6V223.9h.6v9.2h13.1v-9.2h.6v19.5Z" class="g1_1" />
<path d="M196.8,186.9v2.7h2c.5,0,.9,-.2,1.2,-.4c.3,-.2,.5,-.5,.5,-1c0,-.2,-.1,-.5,-.2,-.6c-.1,-.2,-.3,-.3,-.5,-.4c-.2,-.1,-.4,-.2,-.7,-.2c-.2,-.1,-.4,-.1,-.6,-.1Zm0,-6.6v2.4h1.8c.4,0,.8,-.1,1.1,-.3c.3,-.2,.5,-.5,.5,-1c0,-.3,-.2,-.6,-.5,-.8c-.3,-.2,-.7,-.3,-1.3,-.3Zm6.7,4.3c.4,.1,.9,.3,1.3,.5c.4,.3,.8,.6,1.2,1c.3,.3,.6,.8,.8,1.3c.2,.5,.3,1,.3,1.6c0,1.1,-.2,2,-.6,2.7c-.5,.7,-1,1.3,-1.7,1.8c-.7,.4,-1.6,.7,-2.5,.9c-.9,.2,-1.8,.3,-2.8,.3h-8.8V175.2h8c.8,0,1.6,.1,2.5,.2c.9,.1,1.7,.4,2.5,.7c.8,.4,1.4,.9,1.9,1.6c.5,.7,.7,1.6,.7,2.7c0,1,-.2,1.9,-.8,2.6c-.5,.7,-1.2,1.2,-2,1.5Z" class="g3_1" />
<path d="M216.1,183.5h1.3c.2,0,.4,-.1,.7,-.1c.2,0,.5,-.1,.7,-.2c.2,-.2,.4,-.3,.6,-.5c.1,-.2,.2,-.5,.2,-.9c0,-.3,0,-.6,-.2,-.8c-.1,-.2,-.3,-.3,-.5,-.4c-.2,-.1,-.4,-.2,-.6,-.2c-.3,-.1,-.5,-.1,-.7,-.1h-1.5Zm-6.3,-8.3h8.4c.9,0,1.9,.1,2.8,.3c1,.2,1.8,.6,2.5,1c.8,.5,1.4,1.2,1.8,2c.5,.8,.7,1.8,.7,3.1c0,1.1,-.3,2.2,-.8,3.1c-.6,.9,-1.5,1.6,-2.6,2.1l5,7.9h-7.5l-3.8,-7h-.2v7h-6.3Z" class="g3_1" />
<path d="M238.2,182l-1.6,4.8h3.2Zm-3.4,-6.8h7l7.6,19.5h-7.1l-1.1,-2.9H235l-.9,2.9h-6.9Z" class="g3_1" />
<path d="M250.8,175.2h6.6v19.5h-6.6V175.2Z" class="g3_1" />
<path d="M261,175.2h6.5l5.6,9.9h.1l-.3,-9.9h6.2v19.5h-6.7L267,185.4h-.1l.3,9.3H261Z" class="g3_1" />

</svg>
